<?xml version="1.0" standalone="no"?>
<!DOCTYPE svg PUBLIC "-//W3C//DTD SVG 20010904//EN"
 "http://www.w3.org/TR/2001/REC-SVG-20010904/DTD/svg10.dtd">
<svg version="1.0" xmlns="http://www.w3.org/2000/svg"
 width="382.000000pt" height="382.000000pt" viewBox="0 0 382.000000 382.000000"
 preserveAspectRatio="xMidYMid meet">
<metadata>
Created by potrace 1.11, written by Peter Selinger 2001-2013
</metadata>
<g transform="translate(0.000000,382.000000) scale(0.100000,-0.100000)"
fill="#000000" stroke="none">
<path d="M772 2368 c-1 -734 -4 -795 -49 -882 -45 -88 -143 -109 -340 -72 -46
9 -131 43 -164 67 -36 26 -46 24 -51 -8 -3 -16 -33 -137 -68 -271 -73 -280
-79 -246 55 -312 70 -34 134 -54 240 -75 33 -6 268 -7 300 -1 11 2 43 7 70 10
293 40 494 193 583 447 33 94 36 106 57 259 14 105 19 304 19 855 l1 610 -326
3 -326 2 -1 -632z"/>
<path d="M1679 2988 c-1 -17 -1 -2096 0 -2125 l1 -23 325 0 325 0 2 407 3 408
307 0 306 0 1 -360 c0 -198 0 -381 0 -407 l1 -48 323 0 324 0 0 1080 0 1080
-324 0 -323 0 -1 -32 c0 -18 -1 -190 -2 -383 l-2 -350 -307 -1 -308 -2 0 384
0 384 -325 0 c-253 0 -325 -3 -326 -12z"/>
</g>
</svg>
